<svg width="86" height="87" viewBox="0 0 86 87" fill="none" xmlns="http://www.w3.org/2000/svg">
<g filter="url(#filter0_d_1525_5796)">
<circle cx="43" cy="42" r="34" fill="white"/>
</g>
<path d="M55.0176 39.6468C49.9489 39.6468 45.8408 43.755 45.8408 48.8228C45.8408 53.8909 49.9489 58 55.0176 58C60.0853 58 64.1935 53.8909 64.1935 48.8228C64.1935 43.755 60.0853 39.6468 55.0176 39.6468ZM31.1764 39.6473C26.1086 39.6477 22 43.755 22 48.8232C22 53.8909 26.1086 57.9996 31.1764 57.9996C36.2446 57.9996 40.3532 53.8909 40.3532 48.8232C40.3532 43.755 36.2446 39.6473 31.1759 39.6473H31.1764ZM52.2731 28.1764C52.2731 33.2441 48.1649 37.3536 43.0972 37.3536C38.0286 37.3536 33.9204 33.2441 33.9204 28.1764C33.9204 23.1086 38.0286 19 43.0972 19C48.1649 19 52.2727 23.1086 52.2727 28.1764H52.2731Z" fill="url(#paint0_radial_1525_5796)"/>
<defs>
<filter id="filter0_d_1525_5796" x="0.0952377" y="0.714285" width="85.8095" height="85.8095" filterUnits="userSpaceOnUse" color-interpolation-filters="sRGB">
<feFlood flood-opacity="0" result="BackgroundImageFix"/>
<feColorMatrix in="SourceAlpha" type="matrix" values="0 0 0 0 0 0 0 0 0 0 0 0 0 0 0 0 0 0 127 0" result="hardAlpha"/>
<feOffset dy="1.61905"/>
<feGaussianBlur stdDeviation="4.45238"/>
<feComposite in2="hardAlpha" operator="out"/>
<feColorMatrix type="matrix" values="0 0 0 0 0.137255 0 0 0 0 0.588235 0 0 0 0 0.913725 0 0 0 0.37 0"/>
<feBlend mode="normal" in2="BackgroundImageFix" result="effect1_dropShadow_1525_5796"/>
<feBlend mode="normal" in="SourceGraphic" in2="effect1_dropShadow_1525_5796" result="shape"/>
</filter>
<radialGradient id="paint0_radial_1525_5796" cx="0" cy="0" r="1" gradientUnits="userSpaceOnUse" gradientTransform="translate(43.0968 40.3143) scale(27.9587 25.8426)">
<stop stop-color="#FFB900"/>
<stop offset="0.6" stop-color="#F95D8F"/>
<stop offset="0.9991" stop-color="#F95353"/>
</radialGradient>
</defs>
</svg>
